<svg id="Capa_1" enable-background="new 0 0 429.784 429.784" height="512" viewBox="0 0 429.784 429.784" width="512" xmlns="http://www.w3.org/2000/svg"><g><g id="Page-1_41_"><g transform="translate(1 1)"><g id="Icons_41_"><g id="Shape_41_"><path d="m400.194 8.046-390.505 227.741c-2.245 1.351-3.582 3.812-3.493 6.431s1.591 4.983 3.923 6.178l110.682 51.437 28.656 121.786 85.967-64.475.43-.716 99.865 57.168c1.999 1.087 4.395 1.161 6.458.201 2.063-.961 3.547-2.843 4.002-5.072l62.254-319.51.215-1.003 12.68-65.048c1.061-5.486-1.173-11.087-5.718-14.338-4.545-3.252-10.567-3.556-15.416-.78z" fill="#9fc9d3"/></g><g><path d="m376.266 81.906c-.03.342-.102.679-.215 1.003-.207.712-.521 1.389-.931 2.006l-175.516 250.736-50.147 85.967-28.656-121.786 243.573-224.23c2.24-1.999 5.487-2.392 8.14-.986s4.15 4.314 3.752 7.29z" fill="#02a9f4"/></g><g><path d="m421.327 23.162-12.68 65.048-.215 1.003-62.254 319.51c-.454 2.229-1.939 4.111-4.002 5.072s-4.459.886-6.458-.201l-99.865-57.168-36.249-20.775 175.516-250.736c.411-.617.725-1.294.931-2.006.113-.324.185-.661.215-1.003.397-2.976-1.1-5.884-3.752-7.29s-5.9-1.013-8.14.986l-243.573 224.23-110.682-51.437c-2.332-1.195-3.833-3.559-3.923-6.178s1.248-5.08 3.493-6.431l390.505-227.74c4.849-2.776 10.871-2.472 15.416.778 4.544 3.251 6.778 8.852 5.717 14.338z" fill="#00bcd4"/></g><g><path d="m421.327 23.162-12.68 65.048-.215 1.003-62.254 319.51c-.454 2.229-1.939 4.111-4.002 5.072s-4.459.886-6.458-.201l-10.746-6.161 61.968-318.221.215-1.003.788-4.012 11.892-61.036c.947-4.596-.48-9.361-3.797-12.68l4.155-2.436c4.849-2.776 10.871-2.472 15.416.778 4.545 3.252 6.779 8.853 5.718 14.339z" fill="#00838f"/></g><g><path d="m235.854 356.427-.43.716-85.967 64.475 50.147-85.967z" fill="#3f51b5"/></g></g><g id="Layer_10_41_"><g><path d="m149.461 428.784c-.353 0-.707-.028-1.063-.077-2.9-.434-5.244-2.596-5.915-5.443l-27.858-118.4-107.505-49.987c-4.866-2.428-7.898-7.136-8.098-12.376-.189-5.247 2.494-10.165 7.003-12.845l390.559-227.82c7.332-4.18 16.427-3.697 23.22 1.175 6.793 4.869 10.158 13.32 8.584 21.534-.007.007-.007.01-.007.017l-75.151 385.501c-.895 4.484-3.883 8.283-7.996 10.214-4.142 1.917-8.983 1.749-12.964-.427l-130.056-74.451-46.569 79.831c-1.297 2.225-3.665 3.554-6.184 3.554zm50.151-100.295c1.207 0 2.431.301 3.55.944l136.118 77.914 75.032-385.511c.532-2.739-.595-5.558-2.861-7.185-2.26-1.613-5.282-1.784-7.717-.402l-390.443 227.763 110.53 51.323c1.994.93 3.453 2.721 3.956 4.855l24.542 104.31 41.098-70.457c1.329-2.28 3.729-3.554 6.195-3.554zm221.738-305.298h.07z"/></g><g><path d="m199.598 342.817c-1.417 0-2.851-.42-4.1-1.294-3.243-2.267-4.03-6.737-1.763-9.976l175.481-250.74-243.562 224.295c-2.91 2.686-7.444 2.491-10.123-.413-2.679-2.91-2.491-7.444.42-10.123l243.569-224.261c5.478-4.848 13.6-4.89 19.022-.161 5.408 4.708 6.485 12.764 2.505 18.739l-175.572 250.877c-1.393 1.994-3.617 3.057-5.877 3.057z"/></g><g><path d="m149.465 428.784c-2.179 0-4.331-.986-5.737-2.868-2.375-3.162-1.735-7.654 1.431-10.025l85.97-64.475c3.162-2.379 7.647-1.742 10.025 1.434 2.379 3.162 1.735 7.654-1.434 10.025l-85.963 64.475c-1.291.965-2.799 1.434-4.292 1.434z"/></g></g></g></g></g></svg>